<svg xmlns="http://www.w3.org/2000/svg" width="559.9" height="95.6" viewBox="-200 60 559.926 95.613"><g><path d="M 91.3 150.7 l 24.9 -60 C 105.2 78.6 91.6 72.6 75.3 73 l -25.1 60.6 c 15.3 -2 28.9 3.7 41 17.2 z M 73.9 73 l -9.2 0.5 l -3.1 7.7 l 9.2 -0.9 z M 70.2 81.6 l -9.1 0.6 L 57.9 89.9 l 9.3 -0.9 z M 66.6 90.4 l -9.1 0.5 l -3.2 7.6 l 9.3 -0.7 z M 63 99.1 l -9.2 0.5 l -3.1 7.6 l 9.2 -0.8 z M 59.5 107.7 l -9.2 0.5 l -3.1 7.6 l 9.3 -0.8 z M 55.8 116.6 l -9.2 0.6 l -3.1 7.7 l 9.2 -0.8 z M 52.1 125.4 l -9.1 0.6 l -3.2 7.6 l 9.3 -0.9 z M 55 72.6 l -2.9 7 l 8.5 -0.7 l 2.9 -6.9 z"/><path d="M 57 87.6 l 2.8 -6.9 l -8.5 0.6 l -2.9 7 z M 53.5 96.1 l 2.9 -7 l -8.6 0.7 l -2.8 6.9 z" fill="#ff3300"/><path d="M 44.2 98.6 l -3 7 l 8.7 -0.7 l 2.8 -7 z"/><path d="M 40.5 107.4 l -2.8 7 l 8.6 -0.7 l 2.8 -7 z M 36.9 115.9 l -2.8 7 l 8.6 -0.7 l 2.9 -7 z" fill="#02a5ff"/><path d="M 39.1 130.8 l 2.9 -6.9 l -8.5 0.6 l -2.9 6.9 z M 54.6 68.7 l -7.2 0.3 l -2.6 6.2 l 7.3 -0.4 z"/><path d="M 43.7 78 l -2.6 6.1 l 7.3 -0.4 l 2.5 -6 z M 40.2 86.3 l -2.5 6.2 l 7.3 -0.4 l 2.5 -6 z" fill="#ff3300"/><path d="M 43.8 94.8 l -7.3 0.2 l -2.5 6.2 l 7.3 -0.4 z"/><path d="M 32.9 104 l -2.6 6.2 l 7.3 -0.4 l 2.5 -6.1 z M 29.4 112.4 l -2.5 6 l 7.2 -0.3 l 2.6 -6.1 z" fill="#02a5ff"/><path d="M 30.5 126.9 l 2.5 -6.1 l -7.2 0.3 l -2.6 6.1 z M 40.2 66.5 l -1.8 4.4 l 5.8 -0.2 l 1.9 -4.4 z"/><path d="M 36.6 75.3 l -1.8 4.4 l 5.8 -0.2 l 1.9 -4.5 z M 33 83.7 l -1.8 4.4 l 5.9 -0.2 l 1.9 -4.6 z" fill="#ff3300"/><path d="M 35.3 92.1 l -5.9 0.3 l -1.9 4.4 l 5.9 -0.1 z"/><path d="M 25.8 101.2 l -1.9 4.5 l 5.9 -0.2 l 1.8 -4.5 z M 22.3 109.7 l -1.8 4.5 l 5.9 -0.2 l 1.8 -4.5 z" fill="#02a5ff"/><path d="M 18.6 118.4 l -1.8 4.5 l 5.9 -0.2 l 1.9 -4.5 z M 37.7 63.9 l 1.6 -3.8 l -4.5 0.6 l -1.5 3.7 z"/><path d="M 31.1 69.6 l -1.6 3.7 l 4.4 -0.5 l 1.6 -3.8 z M 27.6 78 l -1.6 3.7 l 4.5 -0.5 l 1.6 -3.8 z" fill="#ff3300"/><path d="M 24 86.8 l -1.6 3.7 l 4.4 -0.5 l 1.6 -3.8 z"/><path d="M 20.3 95.6 l -1.5 3.7 l 4.4 -0.5 l 1.6 -3.7 z M 16.8 104.1 l -1.5 3.7 l 4.4 -0.5 l 1.6 -3.8 z" fill="#02a5ff"/><path d="M 13.1 112.8 l -1.4 3.6 l 4.4 -0.5 l 1.6 -3.8 z M 29.4 56.2 l -1.1 2.5 l 3.4 -0.1 L 32.9 55.9 z"/><path d="M 25.8 65 l -1.1 2.6 l 3.3 -0.1 l 1.1 -2.7 z M 22.3 73.3 l -1 2.6 h 3.2 l 1.1 -2.7 z" fill="#ff3300"/><path d="M 18.7 82.1 l -1.1 2.6 h 3.3 l 1.2 -2.7 z"/><path d="M 15.1 91 L 14 93.5 l 3.3 -0.1 l 1.1 -2.6 z M 11.6 99.4 l -1.1 2.6 l 3.3 -0.1 l 1.2 -2.7 z" fill="#02a5ff"/><path d="M 7.9 108.2 L 6.9 110.8 l 3.3 -0.1 l 1.1 -2.7 z"/><path d="M 79.2 102.3 l 8 -19.1 c -3.9 -1.3 -9.1 -1.9 -15.5 -1.7 l -7.9 19.1 c 5.9 -0.2 11 0.4 15.4 1.8 z" fill="#ff3300"/><path d="M 105.6 92.3 c -3.6 -3.7 -7.8 -6.3 -12.7 -7.8 L 84.8 104.1 l 5.5 2.3 c 2.1 0.9 4.5 2.6 7.3 5.2 z" fill="#66cc33"/><path d="M 95.2 117 c -3.6 -3.6 -7.9 -6 -12.8 -7.3 l -7.8 18.8 c 4.5 1.6 8.8 4.1 12.8 7.6 z" fill="#ffcc00"/><path d="M 69.2 126.5 l 7.6 -18.3 c -4.8 -1.6 -9.9 -2.2 -15.4 -1.8 l -7.7 18.5 c 4.6 -0.2 9.8 0.3 15.5 1.6 z" fill="#02a5ff"/></g></svg>