<svg xmlns="http://www.w3.org/2000/svg" width="521.794" height="452.404" viewBox="0 0 489.182 424.129"><path d="M377.659 424.129L489.182 155.62c-48.926-54.197-109.78-80.76-182.855-79.374L194.09 347.232c68.518-9.092 129.33 16.736 183.569 76.897z"/><path d="M69.253 77.968l-4.557 11.549h14.321l4.893-12.242zm15.728-37.399l-4.893 11.55 14.7-.358 4.871-12.22zm7.686 58.44l-6.993 16.42 19.928-2.436 7.35-17.114zm15.728-37.798l-6.993 16.463 19.907-2.457 6.992-17.114zm8.756 62.954l-8.043 19.591 26.249-.714 8.357-20.62zm15.749-37.44l-8.043 19.57 25.87-1.008 8.4-19.949zm16.42 49.325l-11.192 27.613 32.506-1.743 11.192-26.941zm15.729-37.44l-11.529 27.276 32.506-1.743 11.234-26.94zm43.677 81.117l12.956-31.12-38.449 3.129-12.599 30.762zm15.77-37.756l12.599-30.763-38.113 2.772-12.956 31.12z" fill="#f8682c"/><path d="M20.999 194.783l-4.893 11.528 14.699-.336 5.207-11.927zm15.727-37.777l-4.892 11.192 14.678-.336 4.871-11.528zm7.686 58.397l-6.615 16.421 19.55-2.436 6.993-17.135zM60.16 177.67l-6.615 16.4 19.55-2.415 7.013-16.778zm8.756 62.932l-8.063 19.928 26.248-1.05 8.021-20.284zm15.728-37.797l-8.378 19.949 26.584-1.05 8.042-20.306zm16.4 50.019l-11.192 26.92 32.17-1.365L133.55 251.1zm15.413-37.756L104.93 242.68l32.862-1.722 11.172-27.256zm18.164 53.148l-12.578 31.098 38.49-3.15 12.914-31.12zm15.728-37.798l-12.579 31.099 38.449-3.066 12.62-31.162z" fill="#00b4f1"/><path d="M4.557 233.945L0 245.515l14.699-.399 4.893-12.242zm48.59-116.773l-4.871 11.507h14.678l5.228-12.242zM101.045 1.407l-4.872 11.192 14.993-.357L116.436 0zM27.991 254.566l-6.3 16.105 19.592-2.141 6.993-17.114zm48.59-116.437L69.59 154.59l19.57-2.456 7.35-17.156zm61.211-102.431l6.993-16.8-19.928 2.815-6.656 16.42zM52.496 279.722l-8.084 19.948 26.227-1.05 8.4-20.263zm74.797-117.802l-26.248 1.407-8.378 19.591 26.248-.65zm22.028-114.715l-8.022 19.591 25.85-1.07 8.399-19.907zm-43.362 270.314l11.192-27.277-32.17 1.386-11.528 27.214zm59.447-143.378L132.9 175.17l-11.192 27.634 32.547-1.722zM213.66 57.368l-32.17 1.407-11.528 27.634 32.506-1.785zm-69.589 277.937l12.914-30.763-38.07 2.772-12.956 30.784zm23.056-144.365l-13.292 31.12 38.827-3.15 12.578-31.12zm48.276-116.458l-12.956 31.14 38.112-3.149 12.956-30.742zm-12.956 236.38l-40.905 2.478-14.321 34.228 41.577-3.864zm16.463-39.183l-41.283 2.478-13.964 34.27 41.262-3.507zm16.442-39.855l-41.262 2.457-14.006 33.934 41.598-3.507zm16.085-38.448l-41.284 2.457-13.964 33.912 41.263-3.507zm16.063-39.142l-40.884 2.415-14.363 33.955 41.598-3.17zm16.085-39.162l-40.926 2.793-14.3 34.27 41.577-3.843zm16.421-38.826l-41.262 2.436-13.985 34.27 41.262-3.864z"/><path d="M300.723 113.873c-3.26-.012-6.604.023-10.023.1l-35.341 85.33c26.037-1.019 48.983 1.836 68.44 8.036l35.654-85.653c-15.287-5.218-34.882-7.72-58.73-7.813z" fill="#f8682c"/><path d="M441.62 162.613c-16.084-16.442-34.983-27.97-56.633-34.984l-36.37 87.774s13.237 3.98 24.464 10.142c10.53 5.78 20.264 11.55 32.842 23.435z" fill="#91c300"/><path d="M395.466 273.485c-16.106-16.127-35.32-26.962-57.347-32.884l-34.963 84.247c20.264 7.013 39.183 18.541 57.368 33.912z" fill="#ffc300"/><path d="M257.684 225.4c-4.395.009-8.84.173-13.335.486l-34.334 82.896c20.48-1.04 43.374 1.457 69.014 6.972l33.89-81.81c-17.333-5.68-35.79-8.589-55.235-8.545z" fill="#00b4f1"/></svg>